<mxfile modified="2022-03-08T13:58:49.027Z" host="app.diagrams.net" agent="5.0 (Windows NT 10.0; Win64; x64) AppleWebKit/537.36 (KHTML, like Gecko) Chrome/87.0.4280.88 Safari/537.36" etag="Oxma5xF9U26JJQhxt1Gg" version="16.6.5" type="github">
  <diagram id="l8hXMBHkgcEJcSW0mbfh" name="Page-1">
    <mxGraphModel dx="748" dy="359" grid="1" gridSize="10" guides="1" tooltips="1" connect="1" arrows="1" fold="1" page="1" pageScale="1" pageWidth="1169" pageHeight="827" math="0" shadow="0">
      <root>
        <mxCell id="0" />
        <mxCell id="1" parent="0" />
        <mxCell id="C729-e6lpdfnT4OCcN_F-1" value="" style="shape=image;verticalLabelPosition=bottom;verticalAlign=top;imageAspect=0;aspect=fixed;image=data:image/svg+xml,PHN2ZyB4bWxucz0iaHR0cDovL3d3dy53My5vcmcvMjAwMC9zdmciIHZlcnNpb249IjEiIHZpZXdCb3g9IjAgMCA0OCA0OCIgZW5hYmxlLWJhY2tncm91bmQ9Im5ldyAwIDAgNDggNDgiPiYjeGE7ICAgIDxwYXRoIGZpbGw9IiM1NDZFN0EiIGQ9Ik00LDI4VjhjMC0yLjIsMS44LTQsNC00aDI4YzIuMiwwLDQsMS44LDQsNHYyMGMwLDIuMi0xLjgsNC00LDRIOEM1LjgsMzIsNCwzMC4yLDQsMjh6Ii8+JiN4YTsgICAgPHBhdGggZmlsbD0iI0JCREVGQiIgZD0iTTM2LDdIOEM3LjQsNyw3LDcuNCw3LDh2MjBjMCwwLjYsMC40LDEsMSwxaDI4YzAuNiwwLDEtMC40LDEtMVY4QzM3LDcuNCwzNi42LDcsMzYsN3oiLz4mI3hhOyAgICA8cGF0aCBmaWxsPSIjMzc0NzRGIiBkPSJNMzgsMzNINmMtMi4yLDAtNC0xLjgtNC00djBoNDB2MEM0MiwzMS4yLDQwLjIsMzMsMzgsMzN6Ii8+JiN4YTsgICAgPHBhdGggZmlsbD0iI0UzODkzOSIgZD0iTTI0LDQwVjE2YzAtMi4yLDEuOC00LDQtNGgxMmMyLjIsMCw0LDEuOCw0LDR2MjRjMCwyLjItMS44LDQtNCw0SDI4QzI1LjgsNDQsMjQsNDIuMiwyNCw0MHoiLz4mI3hhOyAgICA8cGF0aCBmaWxsPSIjRkZGM0UwIiBkPSJNNDAsMTVIMjhjLTAuNiwwLTEsMC40LTEsMXYyMmMwLDAuNiwwLjQsMSwxLDFoMTJjMC42LDAsMS0wLjQsMS0xVjE2QzQxLDE1LjQsNDAuNiwxNSw0MCwxNXoiLz4mI3hhOyAgICA8Y2lyY2xlIGZpbGw9IiNBNjY0MkEiIGN4PSIzNCIgY3k9IjQxLjUiIHI9IjEuNSIvPiYjeGE7PC9zdmc+" vertex="1" parent="1">
          <mxGeometry x="500" y="280" width="55" height="55" as="geometry" />
        </mxCell>
        <mxCell id="C729-e6lpdfnT4OCcN_F-2" value="" style="shape=image;verticalLabelPosition=bottom;verticalAlign=top;imageAspect=0;aspect=fixed;image=data:image/svg+xml,PHN2ZyB4bWxucz0iaHR0cDovL3d3dy53My5vcmcvMjAwMC9zdmciIHZlcnNpb249IjEiIHZpZXdCb3g9IjAgMCA0OCA0OCIgZW5hYmxlLWJhY2tncm91bmQ9Im5ldyAwIDAgNDggNDgiPiYjeGE7ICAgIDxwb2x5Z29uIGZpbGw9IiNGRjk4MDAiIHBvaW50cz0iMjQsMzcgMTksMzEgMTksMjUgMjksMjUgMjksMzEiLz4mI3hhOyAgICA8ZyBmaWxsPSIjRkZBNzI2Ij4mI3hhOyAgICAgICAgPGNpcmNsZSBjeD0iMzMiIGN5PSIxOSIgcj0iMiIvPiYjeGE7ICAgICAgICA8Y2lyY2xlIGN4PSIxNSIgY3k9IjE5IiByPSIyIi8+JiN4YTsgICAgPC9nPiYjeGE7ICAgIDxwYXRoIGZpbGw9IiNGRkI3NEQiIGQ9Ik0zMywxM2MwLTcuNi0xOC01LTE4LDBjMCwxLjEsMCw1LjksMCw3YzAsNSw0LDksOSw5czktNCw5LTlDMzMsMTguOSwzMywxNC4xLDMzLDEzeiIvPiYjeGE7ICAgIDxwYXRoIGZpbGw9IiNGRjU3MjIiIGQ9Ik0yNCw0Yy02LjEsMC0xMCw0LjktMTAsMTFjMCwwLjgsMCwyLjMsMCwyLjNsMiwxLjd2LTVsMTItNGw0LDR2NWwyLTEuN2MwLDAsMC0xLjUsMC0yLjNjMC00LTEtOC02LTlsLTEtMiBIMjR6Ii8+JiN4YTsgICAgPGcgZmlsbD0iIzc4NDcxOSI+JiN4YTsgICAgICAgIDxjaXJjbGUgY3g9IjI4IiBjeT0iMTkiIHI9IjEiLz4mI3hhOyAgICAgICAgPGNpcmNsZSBjeD0iMjAiIGN5PSIxOSIgcj0iMSIvPiYjeGE7ICAgIDwvZz4mI3hhOyAgICA8cGF0aCBmaWxsPSIjQ0ZEOERDIiBkPSJNMjksMzFMMjksMzFsLTUsMWwtNS0xYzAsMC0xMSwyLTExLDEzaDMyQzQwLDMzLDI5LDMxLDI5LDMxeiIvPiYjeGE7ICAgIDxwb2x5Z29uIGZpbGw9IiMzRjUxQjUiIHBvaW50cz0iMjMsMzUgMjIsNDQgMjYsNDQgMjUsMzUgMjYsMzQgMjQsMzIgMjIsMzQiLz4mI3hhOzwvc3ZnPg==" vertex="1" parent="1">
          <mxGeometry x="555" y="285" width="50" height="50" as="geometry" />
        </mxCell>
        <mxCell id="C729-e6lpdfnT4OCcN_F-3" value="" style="shape=image;verticalLabelPosition=bottom;verticalAlign=top;imageAspect=0;aspect=fixed;image=data:image/svg+xml,PHN2ZyB4bWxucz0iaHR0cDovL3d3dy53My5vcmcvMjAwMC9zdmciIHZlcnNpb249IjEiIHZpZXdCb3g9IjAgMCA0OCA0OCIgZW5hYmxlLWJhY2tncm91bmQ9Im5ldyAwIDAgNDggNDgiPiYjeGE7ICAgIDxwYXRoIGZpbGw9IiM0NTVBNjQiIGQ9Ik0zNi41LDQ0SDExLjVjLTEuMSwwLTEuOC0xLjItMS4zLTIuMkwxMywzN2gyMmwyLjcsNC44QzM4LjMsNDIuOCwzNy42LDQ0LDM2LjUsNDR6Ii8+JiN4YTsgICAgPGNpcmNsZSBmaWxsPSIjNzg5MDlDIiBjeD0iMjQiIGN5PSIyMyIgcj0iMTgiLz4mI3hhOyAgICA8cGF0aCBmaWxsPSIjNDU1QTY0IiBkPSJNMjQsMzVjLTYuNiwwLTEyLTUuNC0xMi0xMmMwLTYuNiw1LjQtMTIsMTItMTJzMTIsNS40LDEyLDEyQzM2LDI5LjYsMzAuNiwzNSwyNCwzNXoiLz4mI3hhOyAgICA8Y2lyY2xlIGZpbGw9IiM0MkE1RjUiIGN4PSIyNCIgY3k9IjIzIiByPSI5Ii8+JiN4YTsgICAgPHBhdGggZmlsbD0iIzkwQ0FGOSIgZD0iTTI4LjgsMjBjLTEuMi0xLjQtMy0yLjItNC44LTIuMnMtMy42LDAuOC00LjgsMi4yYy0wLjUsMC41LTAuNCwxLjMsMC4xLDEuOGMwLjUsMC41LDEuMywwLjQsMS44LTAuMSBjMS41LTEuNyw0LjMtMS43LDUuOCwwYzAuMywwLjMsMC42LDAuNCwxLDAuNGMwLjMsMCwwLjYtMC4xLDAuOS0wLjNDMjkuMiwyMS40LDI5LjMsMjAuNSwyOC44LDIweiIvPiYjeGE7PC9zdmc+" vertex="1" parent="1">
          <mxGeometry x="320" y="340" width="37" height="37" as="geometry" />
        </mxCell>
        <mxCell id="C729-e6lpdfnT4OCcN_F-4" value="" style="shape=image;verticalLabelPosition=bottom;verticalAlign=top;imageAspect=0;aspect=fixed;image=data:image/svg+xml,PHN2ZyB4bWxucz0iaHR0cDovL3d3dy53My5vcmcvMjAwMC9zdmciIHZlcnNpb249IjEiIHZpZXdCb3g9IjAgMCA0OCA0OCIgZW5hYmxlLWJhY2tncm91bmQ9Im5ldyAwIDAgNDggNDgiPiYjeGE7ICAgIDxjaXJjbGUgZmlsbD0iI0ZGRjU5RCIgY3g9IjI0IiBjeT0iMjIiIHI9IjIwIi8+JiN4YTsgICAgPHBhdGggZmlsbD0iI0ZCQzAyRCIgZD0iTTM3LDIyYzAtNy43LTYuNi0xMy44LTE0LjUtMTIuOWMtNiwwLjctMTAuOCw1LjUtMTEuNCwxMS41Yy0wLjUsNC42LDEuNCw4LjcsNC42LDExLjMgYzEuNCwxLjIsMi4zLDIuOSwyLjMsNC44VjM3aDEydi0wLjFjMC0xLjgsMC44LTMuNiwyLjItNC44QzM1LjEsMjkuNywzNywyNi4xLDM3LDIyeiIvPiYjeGE7ICAgIDxwYXRoIGZpbGw9IiNGRkY1OUQiIGQ9Ik0zMC42LDIwLjJsLTMtMmMtMC4zLTAuMi0wLjgtMC4yLTEuMSwwTDI0LDE5LjhsLTIuNC0xLjZjLTAuMy0wLjItMC44LTAuMi0xLjEsMGwtMywyIGMtMC4yLDAuMi0wLjQsMC40LTAuNCwwLjdzMCwwLjYsMC4yLDAuOGwzLjgsNC43VjM3aDJWMjZjMC0wLjItMC4xLTAuNC0wLjItMC42bC0zLjMtNC4xbDEuNS0xbDIuNCwxLjZjMC4zLDAuMiwwLjgsMC4yLDEuMSwwIGwyLjQtMS42bDEuNSwxbC0zLjMsNC4xQzI1LjEsMjUuNiwyNSwyNS44LDI1LDI2djExaDJWMjYuNGwzLjgtNC43YzAuMi0wLjIsMC4zLTAuNSwwLjItMC44UzMwLjgsMjAuMywzMC42LDIwLjJ6Ii8+JiN4YTsgICAgPGNpcmNsZSBmaWxsPSIjNUM2QkMwIiBjeD0iMjQiIGN5PSI0NCIgcj0iMyIvPiYjeGE7ICAgIDxwYXRoIGZpbGw9IiM5RkE4REEiIGQ9Ik0yNiw0NWgtNGMtMi4yLDAtNC0xLjgtNC00di01aDEydjVDMzAsNDMuMiwyOC4yLDQ1LDI2LDQ1eiIvPiYjeGE7ICAgIDxnIGZpbGw9IiM1QzZCQzAiPiYjeGE7ICAgICAgICA8cGF0aCBkPSJNMzAsNDFsLTExLjYsMS42YzAuMywwLjcsMC45LDEuNCwxLjYsMS44bDkuNC0xLjNDMjkuOCw0Mi41LDMwLDQxLjgsMzAsNDF6Ii8+JiN4YTsgICAgICAgIDxwb2x5Z29uIHBvaW50cz0iMTgsMzguNyAxOCw0MC43IDMwLDM5IDMwLDM3Ii8+JiN4YTsgICAgPC9nPiYjeGE7PC9zdmc+" vertex="1" parent="1">
          <mxGeometry x="210" y="340" width="41" height="41" as="geometry" />
        </mxCell>
        <mxCell id="C729-e6lpdfnT4OCcN_F-5" value="" style="shape=image;verticalLabelPosition=bottom;verticalAlign=top;imageAspect=0;aspect=fixed;image=data:image/svg+xml,PHN2ZyB4bWxucz0iaHR0cDovL3d3dy53My5vcmcvMjAwMC9zdmciIHZlcnNpb249IjEiIHZpZXdCb3g9IjAgMCA0OCA0OCIgZW5hYmxlLWJhY2tncm91bmQ9Im5ldyAwIDAgNDggNDgiPiYjeGE7ICAgIDxwYXRoIGZpbGw9Im5vbmUiIHN0cm9rZT0iI0Y0NDMzNiIgc3Ryb2tlLXdpZHRoPSI0IiBzdHJva2UtbWl0ZXJsaW1pdD0iMTAiIGQ9Ik03LDIwdi04YzAtMi4yLDEuOC00LDQtNGgxNGMxLjIsMCwyLjQsMC42LDMuMiwxLjYgTDM1LDE4Ii8+JiN4YTsgICAgPGcgZmlsbD0iIzM3NDc0RiI+JiN4YTsgICAgICAgIDxjaXJjbGUgY3g9IjM1IiBjeT0iMzciIHI9IjUiLz4mI3hhOyAgICAgICAgPGNpcmNsZSBjeD0iMTMiIGN5PSIzNyIgcj0iNSIvPiYjeGE7ICAgIDwvZz4mI3hhOyAgICA8cGF0aCBmaWxsPSIjRjQ0MzM2IiBkPSJNNDAuMiwxN0wzMywxNEg3Yy0xLjIsMC0yLDAuOC0yLDJ2MTBjMCwxLjIsMC44LDIsMiwyaDFjMC0yLjgsMi4yLTUsNS01czUsMi4yLDUsNWgxMmMwLTIuOCwyLjItNSw1LTUgczUsMi4yLDUsNWgxYzEuMiwwLDItMC44LDItMnYtNS4yQzQzLDE5LjIsNDEuOCwxNy42LDQwLjIsMTd6Ii8+JiN4YTsgICAgPGcgZmlsbD0iIzU0NkU3QSI+JiN4YTsgICAgICAgIDxjaXJjbGUgY3g9IjI0IiBjeT0iMzciIHI9IjMiLz4mI3hhOyAgICAgICAgPGNpcmNsZSBjeD0iMzUiIGN5PSIzNyIgcj0iMiIvPiYjeGE7ICAgICAgICA8Y2lyY2xlIGN4PSIxMyIgY3k9IjM3IiByPSIyIi8+JiN4YTsgICAgICAgIDxwYXRoIGQ9Ik0zMC40LDM5Yy0wLjMtMC42LTAuNC0xLjMtMC40LTJzMC4yLTEuNCwwLjQtMkgxNy42YzAuMywwLjYsMC40LDEuMywwLjQsMnMtMC4yLDEuNC0wLjQsMkgzMC40eiIvPiYjeGE7ICAgIDwvZz4mI3hhOzwvc3ZnPg==" vertex="1" parent="1">
          <mxGeometry x="380" y="338" width="41" height="41" as="geometry" />
        </mxCell>
        <mxCell id="C729-e6lpdfnT4OCcN_F-6" value="" style="shape=image;verticalLabelPosition=bottom;verticalAlign=top;imageAspect=0;aspect=fixed;image=data:image/svg+xml,PHN2ZyB4bWxucz0iaHR0cDovL3d3dy53My5vcmcvMjAwMC9zdmciIHZlcnNpb249IjEiIHZpZXdCb3g9IjAgMCA0OCA0OCIgZW5hYmxlLWJhY2tncm91bmQ9Im5ldyAwIDAgNDggNDgiPiYjeGE7ICAgIDxwYXRoIGZpbGw9IiM1NDZFN0EiIGQ9Ik00NCwzMEg0VjExYzAtMi4yLDEuOC00LDQtNGgzMmMyLjIsMCw0LDEuOCw0LDRWMzB6Ii8+JiN4YTsgICAgPHBhdGggZmlsbD0iIzY0QjVGNiIgZD0iTTQwLDI3SDhjLTAuNiwwLTEtMC40LTEtMVYxMWMwLTAuNiwwLjQtMSwxLTFoMzJjMC42LDAsMSwwLjQsMSwxdjE1QzQxLDI2LjYsNDAuNiwyNyw0MCwyN3oiLz4mI3hhOyAgICA8cGF0aCBmaWxsPSIjNzg5MDlDIiBkPSJNNDAsNDFIOGMtMi4yLDAtNC0xLjgtNC00di03aDQwdjdDNDQsMzkuMiw0Mi4yLDQxLDQwLDQxeiIvPiYjeGE7ICAgIDxnIGZpbGw9IiMzNzQ3NEYiPiYjeGE7ICAgICAgICA8cmVjdCB4PSIyNyIgeT0iMzQiIHdpZHRoPSIxMiIgaGVpZ2h0PSIyIi8+JiN4YTsgICAgICAgIDxyZWN0IHg9IjkiIHk9IjM0IiB3aWR0aD0iMTIiIGhlaWdodD0iMiIvPiYjeGE7ICAgICAgICA8cGF0aCBkPSJNMTgsMzVjMCwxLjEtMS4zLDItMywycy0zLTAuOS0zLTJIMTh6Ii8+JiN4YTsgICAgPC9nPiYjeGE7PC9zdmc+" vertex="1" parent="1">
          <mxGeometry x="260" y="338" width="43" height="43" as="geometry" />
        </mxCell>
        <mxCell id="C729-e6lpdfnT4OCcN_F-7" value="" style="endArrow=none;dashed=1;html=1;rounded=0;" edge="1" parent="1">
          <mxGeometry width="50" height="50" relative="1" as="geometry">
            <mxPoint x="200" y="320" as="sourcePoint" />
            <mxPoint x="440" y="320" as="targetPoint" />
            <Array as="points">
              <mxPoint x="320" y="320" />
            </Array>
          </mxGeometry>
        </mxCell>
        <mxCell id="C729-e6lpdfnT4OCcN_F-8" value="" style="endArrow=none;dashed=1;html=1;rounded=0;" edge="1" parent="1">
          <mxGeometry width="50" height="50" relative="1" as="geometry">
            <mxPoint x="200" y="400" as="sourcePoint" />
            <mxPoint x="200" y="320" as="targetPoint" />
          </mxGeometry>
        </mxCell>
        <mxCell id="C729-e6lpdfnT4OCcN_F-9" value="" style="endArrow=none;dashed=1;html=1;rounded=0;" edge="1" parent="1">
          <mxGeometry width="50" height="50" relative="1" as="geometry">
            <mxPoint x="440" y="400" as="sourcePoint" />
            <mxPoint x="440" y="320" as="targetPoint" />
          </mxGeometry>
        </mxCell>
        <mxCell id="C729-e6lpdfnT4OCcN_F-10" value="" style="endArrow=none;dashed=1;html=1;rounded=0;" edge="1" parent="1">
          <mxGeometry width="50" height="50" relative="1" as="geometry">
            <mxPoint x="200" y="400" as="sourcePoint" />
            <mxPoint x="440" y="400" as="targetPoint" />
          </mxGeometry>
        </mxCell>
        <mxCell id="C729-e6lpdfnT4OCcN_F-11" value="" style="endArrow=none;dashed=1;html=1;rounded=0;" edge="1" parent="1">
          <mxGeometry width="50" height="50" relative="1" as="geometry">
            <mxPoint x="490" y="340" as="sourcePoint" />
            <mxPoint x="490" y="270" as="targetPoint" />
          </mxGeometry>
        </mxCell>
        <mxCell id="C729-e6lpdfnT4OCcN_F-12" value="" style="endArrow=none;dashed=1;html=1;rounded=0;" edge="1" parent="1">
          <mxGeometry width="50" height="50" relative="1" as="geometry">
            <mxPoint x="610" y="340" as="sourcePoint" />
            <mxPoint x="610" y="270" as="targetPoint" />
          </mxGeometry>
        </mxCell>
        <mxCell id="C729-e6lpdfnT4OCcN_F-13" value="" style="endArrow=none;dashed=1;html=1;rounded=0;" edge="1" parent="1">
          <mxGeometry width="50" height="50" relative="1" as="geometry">
            <mxPoint x="490" y="340" as="sourcePoint" />
            <mxPoint x="610" y="340" as="targetPoint" />
          </mxGeometry>
        </mxCell>
        <mxCell id="C729-e6lpdfnT4OCcN_F-14" value="" style="endArrow=none;dashed=1;html=1;rounded=0;" edge="1" parent="1">
          <mxGeometry width="50" height="50" relative="1" as="geometry">
            <mxPoint x="490" y="270" as="sourcePoint" />
            <mxPoint x="610" y="270" as="targetPoint" />
          </mxGeometry>
        </mxCell>
        <mxCell id="C729-e6lpdfnT4OCcN_F-15" value="" style="endArrow=none;html=1;rounded=0;" edge="1" parent="1">
          <mxGeometry width="50" height="50" relative="1" as="geometry">
            <mxPoint x="200" y="290" as="sourcePoint" />
            <mxPoint x="440" y="290" as="targetPoint" />
          </mxGeometry>
        </mxCell>
        <mxCell id="C729-e6lpdfnT4OCcN_F-16" value="" style="endArrow=none;html=1;rounded=0;" edge="1" parent="1">
          <mxGeometry width="50" height="50" relative="1" as="geometry">
            <mxPoint x="320" y="270" as="sourcePoint" />
            <mxPoint x="320" y="290" as="targetPoint" />
          </mxGeometry>
        </mxCell>
        <mxCell id="C729-e6lpdfnT4OCcN_F-17" value="" style="endArrow=none;html=1;rounded=0;" edge="1" parent="1">
          <mxGeometry width="50" height="50" relative="1" as="geometry">
            <mxPoint x="230" y="290" as="sourcePoint" />
            <mxPoint x="230" y="330" as="targetPoint" />
          </mxGeometry>
        </mxCell>
        <mxCell id="C729-e6lpdfnT4OCcN_F-36" value="PLC" style="edgeLabel;html=1;align=center;verticalAlign=middle;resizable=0;points=[];" vertex="1" connectable="0" parent="C729-e6lpdfnT4OCcN_F-17">
          <mxGeometry x="-0.5447" y="-1" relative="1" as="geometry">
            <mxPoint y="8" as="offset" />
          </mxGeometry>
        </mxCell>
        <mxCell id="C729-e6lpdfnT4OCcN_F-18" value="" style="endArrow=none;html=1;rounded=0;" edge="1" parent="1">
          <mxGeometry width="50" height="50" relative="1" as="geometry">
            <mxPoint x="281.08" y="290" as="sourcePoint" />
            <mxPoint x="281.08" y="330" as="targetPoint" />
          </mxGeometry>
        </mxCell>
        <mxCell id="C729-e6lpdfnT4OCcN_F-37" value="RFID" style="edgeLabel;html=1;align=center;verticalAlign=middle;resizable=0;points=[];" vertex="1" connectable="0" parent="C729-e6lpdfnT4OCcN_F-18">
          <mxGeometry x="-0.4614" y="1" relative="1" as="geometry">
            <mxPoint x="-1" y="7" as="offset" />
          </mxGeometry>
        </mxCell>
        <mxCell id="C729-e6lpdfnT4OCcN_F-19" value="" style="endArrow=none;html=1;rounded=0;" edge="1" parent="1">
          <mxGeometry width="50" height="50" relative="1" as="geometry">
            <mxPoint x="339.99999999999994" y="290" as="sourcePoint" />
            <mxPoint x="339.99999999999994" y="330" as="targetPoint" />
          </mxGeometry>
        </mxCell>
        <mxCell id="C729-e6lpdfnT4OCcN_F-38" value="传感器" style="edgeLabel;html=1;align=center;verticalAlign=middle;resizable=0;points=[];" vertex="1" connectable="0" parent="C729-e6lpdfnT4OCcN_F-19">
          <mxGeometry x="-0.5447" relative="1" as="geometry">
            <mxPoint x="-1" y="8" as="offset" />
          </mxGeometry>
        </mxCell>
        <mxCell id="C729-e6lpdfnT4OCcN_F-20" value="" style="endArrow=none;html=1;rounded=0;" edge="1" parent="1">
          <mxGeometry width="50" height="50" relative="1" as="geometry">
            <mxPoint x="400.08" y="290" as="sourcePoint" />
            <mxPoint x="400.08" y="330" as="targetPoint" />
          </mxGeometry>
        </mxCell>
        <mxCell id="C729-e6lpdfnT4OCcN_F-39" value="DCS" style="edgeLabel;html=1;align=center;verticalAlign=middle;resizable=0;points=[];" vertex="1" connectable="0" parent="C729-e6lpdfnT4OCcN_F-20">
          <mxGeometry x="0.4136" y="1" relative="1" as="geometry">
            <mxPoint x="-1" y="-11" as="offset" />
          </mxGeometry>
        </mxCell>
        <mxCell id="C729-e6lpdfnT4OCcN_F-21" value="车间设备" style="rounded=0;whiteSpace=wrap;html=1;" vertex="1" parent="1">
          <mxGeometry x="260" y="379" width="120" height="21" as="geometry" />
        </mxCell>
        <mxCell id="C729-e6lpdfnT4OCcN_F-24" value="自动数据采集" style="rounded=1;whiteSpace=wrap;html=1;" vertex="1" parent="1">
          <mxGeometry x="272.5" y="240" width="95" height="30" as="geometry" />
        </mxCell>
        <mxCell id="C729-e6lpdfnT4OCcN_F-25" value="手动输入数据" style="rounded=1;whiteSpace=wrap;html=1;" vertex="1" parent="1">
          <mxGeometry x="500" y="240" width="95" height="30" as="geometry" />
        </mxCell>
        <mxCell id="C729-e6lpdfnT4OCcN_F-26" value="OPC UA服务器" style="rounded=0;whiteSpace=wrap;html=1;" vertex="1" parent="1">
          <mxGeometry x="320" y="160" width="223" height="40" as="geometry" />
        </mxCell>
        <mxCell id="C729-e6lpdfnT4OCcN_F-27" value="" style="endArrow=classic;startArrow=classic;html=1;rounded=0;exitX=0.811;exitY=-0.01;exitDx=0;exitDy=0;exitPerimeter=0;entryX=0.135;entryY=1.008;entryDx=0;entryDy=0;entryPerimeter=0;" edge="1" parent="1" source="C729-e6lpdfnT4OCcN_F-24" target="C729-e6lpdfnT4OCcN_F-26">
          <mxGeometry width="50" height="50" relative="1" as="geometry">
            <mxPoint x="330" y="250" as="sourcePoint" />
            <mxPoint x="380" y="200" as="targetPoint" />
          </mxGeometry>
        </mxCell>
        <mxCell id="C729-e6lpdfnT4OCcN_F-28" value="" style="endArrow=classic;html=1;rounded=0;exitX=0.25;exitY=0;exitDx=0;exitDy=0;" edge="1" parent="1" source="C729-e6lpdfnT4OCcN_F-25">
          <mxGeometry width="50" height="50" relative="1" as="geometry">
            <mxPoint x="490" y="250" as="sourcePoint" />
            <mxPoint x="524" y="200" as="targetPoint" />
          </mxGeometry>
        </mxCell>
        <mxCell id="C729-e6lpdfnT4OCcN_F-34" value="" style="shape=image;verticalLabelPosition=bottom;verticalAlign=top;imageAspect=0;aspect=fixed;image=data:image/svg+xml,PHN2ZyB4bWxucz0iaHR0cDovL3d3dy53My5vcmcvMjAwMC9zdmciIHZlcnNpb249IjEiIHZpZXdCb3g9IjAgMCA0OCA0OCIgZW5hYmxlLWJhY2tncm91bmQ9Im5ldyAwIDAgNDggNDgiPiYjeGE7ICAgIDxwYXRoIGZpbGw9IiM0MkE1RjUiIGQ9Ik0zOSw0NUg5YzAsMC0zLTAuMS0zLThoMzZDNDIsNDQuOSwzOSw0NSwzOSw0NXoiLz4mI3hhOyAgICA8cmVjdCB4PSI4IiB5PSIzIiBmaWxsPSIjOTBDQUY5IiB3aWR0aD0iMzIiIGhlaWdodD0iMzQiLz4mI3hhOyAgICA8ZyBmaWxsPSIjMTk3NkQyIj4mI3hhOyAgICAgICAgPHJlY3QgeD0iMTgiIHk9IjE1IiB3aWR0aD0iMTYiIGhlaWdodD0iMiIvPiYjeGE7ICAgICAgICA8cmVjdCB4PSIxOCIgeT0iMTkiIHdpZHRoPSIxNiIgaGVpZ2h0PSIyIi8+JiN4YTsgICAgICAgIDxyZWN0IHg9IjE4IiB5PSIyMyIgd2lkdGg9IjE2IiBoZWlnaHQ9IjIiLz4mI3hhOyAgICAgICAgPHJlY3QgeD0iMTgiIHk9IjI3IiB3aWR0aD0iMTYiIGhlaWdodD0iMiIvPiYjeGE7ICAgICAgICA8cmVjdCB4PSIxOCIgeT0iMzEiIHdpZHRoPSIxNiIgaGVpZ2h0PSIyIi8+JiN4YTsgICAgPC9nPiYjeGE7ICAgIDxnIGZpbGw9IiMxOTc2RDIiPiYjeGE7ICAgICAgICA8cmVjdCB4PSIxNCIgeT0iMTUiIHdpZHRoPSIyIiBoZWlnaHQ9IjIiLz4mI3hhOyAgICAgICAgPHJlY3QgeD0iMTQiIHk9IjE5IiB3aWR0aD0iMiIgaGVpZ2h0PSIyIi8+JiN4YTsgICAgICAgIDxyZWN0IHg9IjE0IiB5PSIyMyIgd2lkdGg9IjIiIGhlaWdodD0iMiIvPiYjeGE7ICAgICAgICA8cmVjdCB4PSIxNCIgeT0iMjciIHdpZHRoPSIyIiBoZWlnaHQ9IjIiLz4mI3hhOyAgICAgICAgPHJlY3QgeD0iMTQiIHk9IjMxIiB3aWR0aD0iMiIgaGVpZ2h0PSIyIi8+JiN4YTsgICAgPC9nPiYjeGE7PC9zdmc+" vertex="1" parent="1">
          <mxGeometry x="490" y="165" width="30" height="30" as="geometry" />
        </mxCell>
      </root>
    </mxGraphModel>
  </diagram>
</mxfile>
